# File created by Blade
# Date/Time:  Mon Sep 22 15:39:46 2014
# Frame Rate: 120.000 fps
#------------------------------------------------------
:FULLY-SPECIFIED
:DEGREES
2647
root 0.942275 37.047159 2.805275 2.302948 -11.971970 0.303346
RightUpLeg 5.828104 0.516320 -0.561245
RightLeg -5.892650 -0.000000 0.000000
RightFoot -11.176782 -12.291069 15.375125
RightToeBase 15.322997 -0.000000 -0.000000
LeftUpLeg 7.005574 9.502825 4.540583
LeftLeg -3.303753 -0.000000 0.000000
LeftFoot -10.499021 14.908884 -19.779203
LeftToeBase 7.785671 -0.000000 -0.000000
Spine 0.645213 -18.141729 -5.653944
RightShoulder -7.820753 -3.579531 -25.846920
RightArm -285.192401 93.190341 -244.581642
RightForeArm 91.066814 0.000000 124.561053
RightHand 16.217970 -0.000000 28.063787
RightHandThumb1 -24.326973 -0.000000 -32.862282
LeftShoulder -19.469799 36.845554 -5.805384
LeftArm 35.945659 5.743819 -68.782887
LeftForeArm 21.962997 0.000000 30.557737
LeftHand -16.209929 -0.000000 -7.626727
LeftHandThumb1 -26.253704 0.000000 33.147579
Head 1.664122 -39.216441 7.240810
2648
root 0.947479 37.047991 2.809882 2.243195 -11.929752 0.326118
RightUpLeg 5.883472 0.532702 -0.584468
RightLeg -5.872877 -0.000000 0.000000
RightFoot -11.228190 -12.331428 15.411429
RightToeBase 15.362157 -0.000000 -0.000000
LeftUpLeg 7.059055 9.346345 4.509942
LeftLeg -3.307554 -0.000000 0.000000
LeftFoot -10.520949 15.008143 -19.808551
LeftToeBase 7.790758 -0.000000 -0.000000
Spine 0.694879 -18.148702 -5.668010
RightShoulder -7.749648 -3.484076 -26.129321
RightArm -274.317536 93.306729 -234.483599
RightForeArm 90.851866 -0.000000 122.260194
RightHand 16.237242 -0.000000 27.425048
RightHandThumb1 -24.326973 -0.000000 -32.862282
LeftShoulder -19.399821 36.835885 -5.816929
LeftArm 35.892527 5.518841 -68.862512
LeftForeArm 22.067201 -0.000000 30.667665
LeftHand -16.366985 0.000000 -7.731633
LeftHandThumb1 -26.253704 0.000000 33.147579
Head 1.473911 -39.306081 7.254499
2649
root 0.952253 37.048466 2.813604 2.159384 -11.887716 0.337198
RightUpLeg 5.970400 0.565062 -0.597747
RightLeg -5.863892 -0.000000 0.000000
RightFoot -11.243290 -12.410598 15.398383
RightToeBase 15.335112 -0.000000 -0.000000
LeftUpLeg 7.141352 9.237926 4.499080
LeftLeg -3.315618 -0.000000 0.000000
LeftFoot -10.538704 15.061489 -19.838431
LeftToeBase 7.797734 -0.000000 -0.000000
Spine 0.783928 -18.136251 -5.671673
RightShoulder -7.668141 -3.293579 -26.484716
RightArm -264.747016 93.619185 -225.643773
RightForeArm 90.632865 -0.000000 119.868165
RightHand 16.116000 -0.000000 26.866161
RightHandThumb1 -24.326973 -0.000000 -32.862282
LeftShoulder -19.294719 36.841656 -5.791888
LeftArm 35.864877 5.330698 -68.920503
LeftForeArm 22.057150 -0.000000 30.739425
LeftHand -16.374340 -0.000000 -7.754600
LeftHandThumb1 -26.253704 0.000000 33.147579
Head 1.282105 -39.420149 7.249107
2650
root 0.958680 37.049865 2.817279 2.088854 -11.847987 0.360765
RightUpLeg 6.031730 0.573743 -0.629362
RightLeg -5.834597 -0.000000 0.000000
RightFoot -11.267827 -12.442341 15.414379
RightToeBase 15.285029 -0.000000 -0.000000
LeftUpLeg 7.206599 9.136546 4.471432
LeftLeg -3.322501 -0.000000 0.000000
LeftFoot -10.531786 15.115112 -19.834537
LeftToeBase 7.794465 -0.000000 -0.000000
Spine 0.861233 -18.110096 -5.689050
RightShoulder -7.631536 -3.206492 -26.800888
RightArm -257.882499 93.887681 -219.561946
RightForeArm 90.257662 -0.000000 117.321219
RightHand 16.105901 -0.000000 26.463943
RightHandThumb1 -24.326973 -0.000000 -32.862282
LeftShoulder -19.183798 36.843356 -5.757355
LeftArm 35.834667 5.176896 -68.970602
LeftForeArm 22.062223 -0.000000 30.816111
LeftHand -16.427395 -0.000000 -7.600695
LeftHandThumb1 -26.253704 0.000000 33.147579
Head 1.080436 -39.538853 7.276209
2651
root 0.964162 37.051711 2.820256 2.006818 -11.811010 0.376997
RightUpLeg 6.096733 0.555040 -0.650018
RightLeg -5.794672 -0.000000 0.000000
RightFoot -11.313343 -12.429309 15.474413
RightToeBase 15.344572 -0.000000 -0.000000
LeftUpLeg 7.277922 9.092448 4.459170
LeftLeg -3.313080 -0.000000 0.000000
LeftFoot -10.533873 15.112377 -19.854372
LeftToeBase 7.816977 -0.000000 -0.000000
Spine 0.964002 -18.071278 -5.704292
RightShoulder -7.605053 -3.002698 -27.191854
RightArm -251.326036 94.296201 -213.715276
RightForeArm 90.026359 0.000000 114.685007
RightHand 16.027783 0.000000 26.089090
RightHandThumb1 -24.326973 -0.000000 -32.862282
LeftShoulder -19.069379 36.856048 -5.718181
LeftArm 35.828921 5.037709 -68.975124
LeftForeArm 22.115477 0.000000 30.881726
LeftHand -16.343240 0.000000 -7.586675
LeftHandThumb1 -26.253704 0.000000 33.147579
Head 0.848837 -39.646398 7.320081
2652
root 0.971033 37.052210 2.823708 1.920214 -11.765483 0.398672
RightUpLeg 6.143980 0.446997 -0.680951
RightLeg -5.705864 -0.000000 0.000000
RightFoot -11.366840 -12.378139 15.437775
RightToeBase 15.405660 -0.000000 -0.000000
LeftUpLeg 7.349121 9.029174 4.439510
LeftLeg -3.299586 -0.000000 0.000000
LeftFoot -10.541360 15.115544 -19.870395
LeftToeBase 7.792798 -0.000000 -0.000000
Spine 1.078758 -18.065708 -5.724764
RightShoulder -7.599812 -2.742125 -27.575786
RightArm -245.384809 94.699444 -208.545859
RightForeArm 89.809988 0.000000 111.906181
RightHand 15.874271 0.000000 25.703609
RightHandThumb1 -24.326973 -0.000000 -32.862282
LeftShoulder -19.008382 36.847455 -5.708030
LeftArm 35.812766 4.941605 -68.939643
LeftForeArm 22.065689 -0.000000 30.973397
LeftHand -16.197032 0.000000 -7.722392
LeftHandThumb1 -26.253704 0.000000 33.147579
Head 0.593214 -39.680541 7.413075
2653
root 0.977202 37.053388 2.826341 1.844076 -11.737174 0.416787
RightUpLeg 6.230756 0.487860 -0.706563
RightLeg -5.722518 -0.000000 0.000000
RightFoot -11.340466 -12.448745 15.423973
RightToeBase 15.264242 -0.000000 -0.000000
LeftUpLeg 7.399108 9.021365 4.425661
LeftLeg -3.257609 -0.000000 0.000000
LeftFoot -10.548657 15.085281 -19.883741
LeftToeBase 7.789075 -0.000000 -0.000000
Spine 1.182872 -18.034840 -5.742561
RightShoulder -7.604352 -2.455717 -27.991259
RightArm -240.323282 95.175142 -204.209621
RightForeArm 89.528724 -0.000000 109.006928
RightHand 15.720463 0.000000 25.287614
RightHandThumb1 -24.326973 -0.000000 -32.862282
LeftShoulder -18.940075 36.856549 -5.691712
LeftArm 35.809788 4.840490 -68.910357
LeftForeArm 22.189854 -0.000000 31.068183
LeftHand -16.243850 -0.000000 -7.708317
LeftHandThumb1 -26.253704 0.000000 33.147579
Head 0.352924 -39.745932 7.493222
